<svg viewBox="0 0 96 96" height="96" width="96" xmlns="http://www.w3.org/2000/svg"><path fill="#AD53C8" d="M93.001 38.745L93 86c0 5.407-4.349 9.847-9.721 9.996L83 96H63V86h20V46.438c3.934-1.535 7.315-4.16 10.001-7.693zM3 86l-.001-47.257c2.686 3.532 6.067 6.16 10 7.695L13 86h20v10H13c-5.456 0-9.849-4.349-9.996-9.721L3 86l-.001-47.257L3 86zm45-40l20 20H53v30H43V66H28l20-20zM76.4 0c15.97 0 19.683 3.63 19.599 15-.148 18.31-9.238 28.999-21.55 28.999-9.977 0-16.88-11-26.447-11-9.568 0-17.065 11-26.449 11-12.312 0-21.403-10.688-21.551-29C-.09 3.63 3.612 0 19.6 0 35.59 0 40.255 6 48 6c7.743 0 12.427-6 28.398-6zM27.428 14c-9.714.386-13.714 5.691-13.714 7 0 1.307 6.44 5 12.734 5s13.713-2.115 13.713-4c.002-2.105-3.562-8.364-12.733-8zm28.409 8c0 1.885 7.418 4 13.713 4 6.296 0 12.734-3.693 12.734-5 0-1.309-4-6.614-13.714-7-9.165-.364-12.733 5.895-12.733 8z"/></svg>
